<?xml version="1.0" encoding="utf-8"?>
<?xml-stylesheet type="text/xsl" href="rss1.xsl"?>
<rss version="2.0" xmlns:atom="http://www.w3.org/2005/Atom" xmlns:content="http://purl.org/rss/1.0/modules/content/" xmlns:dc="http://purl.org/dc/elements/1.1/" xmlns:media="http://search.yahoo.com/mrss/">
<channel>
 <title>Getty</title>
 <link>http://www.gettyimg.com/</link>
 <atom:link href="http://www.gettyimg.com/" rel="self" type="application/rss+xml" />

 
                <item>
                <title><![CDATA[【HD Live Performances】WEB-RiP - Ava Max - Live at Untold Festival 2023 (1080p)]]></title>
                <link><![CDATA[https://sharemania.us/threads/ava-max-live-at-untold-festival-2023-1080p.232166/]]></link>
                <description><![CDATA[<article>
<blockquote class="messageText SelectQuoteContainer ugc baseHtml">
<img src="https://images2.imgbox.com/3a/4c/0bUMVjPp_o.jpg" class="bbCodeImage LbImage" alt="[​IMG]" data-url="https://images2.imgbox.com/3a/4c/0bUMVjPp_o.jpg" style=""> <br>
<br>
<b>Setlist</b>:<br>
1. Diamonds &amp; Dancefloors (Shortened)<br>
2. My Head &amp; My Heart<br>
3. Who's Laughing Now<br>
4. Hold Up (Wait a Minute)<br>
5. Kings &amp; Queens<br>
6. Weapons<br>
7. Maybe You’re the Problem<br>
8. Ghost<br>
9. Cold as Ice<br>
10. Belladonna (Shortened)<br>
11. Not Your Barbie Girl (Shortened)<br>
12. Salt (Shortened)<br>
13. Last Night on Earth<br>
14. Dancing’s Done<br>
15. Sleepwalker<br>
16. Million Dollar Baby<br>
17. Sweet but Psycho<br>
18. The Motto (Tiësto cover)<br>
<br>
<div class="ToggleTriggerAnchor bbCodeSpoilerContainer">
<button type="button" class="button bbCodeSpoilerButton ToggleTrigger Tooltip JsOnly" data-target="> .SpoilerTarget"><span>Spoiler: <span class="SpoilerTitle">MediaInfo</span></span></button>
<div class="SpoilerTarget bbCodeSpoilerText">
<div class="bbCodeBlock bbCodeCode">
<div class="type">Code:</div>
<pre>General
Complete name                            : N:\Ava Max - Live @ Untold Festival 2023 (1080p WEBRIP Bilibili).mp4
Format                                   : MPEG-4
Format profile                           : Base Media
Codec ID                                 : isom (isom/iso2/avc1/mp41)
File size                                : 1.19 GiB
Duration                                 : 55 min 13 s
Overall bit rate                         : 3 075 kb/s
Frame rate                               : 60.000 FPS
Description                              : Packed by Bilibili XCoder v2.0.2
Writing application                      : Lavf59.16.100

Video
ID                                       : 1
Format                                   : AVC
Format/Info                              : Advanced Video Codec
Format profile                           : High@L5.1
Format settings                          : CABAC / 4 Ref Frames
Format settings, CABAC                   : Yes
Format settings, Reference frames        : 4 frames
Codec ID                                 : avc1
Codec ID/Info                            : Advanced Video Coding
Duration                                 : 55 min 12 s
Bit rate                                 : 2 951 kb/s
Width                                    : 1 920 pixels
Height                                   : 1 080 pixels
Display aspect ratio                     : 16:9
Frame rate mode                          : Variable
Frame rate                               : 60.000 FPS
Minimum frame rate                       : 58.824 FPS
Maximum frame rate                       : 62.500 FPS
Color space                              : YUV
Chroma subsampling                       : 4:2:0
Bit depth                                : 8 bits
Scan type                                : Progressive
Bits/(Pixel*Frame)                       : 0.024
Stream size                              : 1.14 GiB (96%)
Codec configuration box                  : avcC

Audio
ID                                       : 2
Format                                   : AAC LC
Format/Info                              : Advanced Audio Codec Low Complexity
Codec ID                                 : mp4a-40-2
Duration                                 : 55 min 13 s
Bit rate mode                            : Constant
Bit rate                                 : 108 kb/s
Channel(s)                               : 2 channels
Channel layout                           : L R
Sampling rate                            : 44.1 kHz
Frame rate                               : 43.066 FPS (1024 SPF)
Compression mode                         : Lossy
Stream size                              : 42.8 MiB (4%)
Default                                  : Yes
Alternate group                          : 1
</pre>
</div></div>
</div><br>
Source: <a href="https://www.bilibili.com/video/BV15F411f7W6/" target="_blank" class="externalLink" rel="nofollow">https://www.bilibili.com/video/BV15F411f7W6/</a><br>
<br>
<div class="bbCodeBlock bbCodeVfcHH HiddenContent">
<div class="attribution type">Hidden Content:</div>
<blockquote>You must reply before you can see the hidden data contained here.</blockquote>
</div>
<div class="messageTextEndMarker">&nbsp;</div>
</blockquote>
</article>]]></description>
                <author><![CDATA[Gizmo234]]></author>
                </item>

                
                <item>
                <title><![CDATA[【Requests】[REQ AUD] - All That: The Album (Clean Version) [FLAC]]]></title>
                <link><![CDATA[https://sharemania.us/threads/all-that-the-album-clean-version-flac.232167/]]></link>
                <description><![CDATA[<article>
<blockquote class="messageText SelectQuoteContainer ugc baseHtml">
thanks
<div class="messageTextEndMarker">&nbsp;</div>
</blockquote>
</article>]]></description>
                <author><![CDATA[OrangeGround35]]></author>
                </item>

                </channel></rss>